Bangkok Dangerous (1999) DVDRip.x264.AC3 - FASTERWOLF

[img]http://s2.postimg.org/fhhja81m1/image.jpg[/img]

[img]http://s14.postimage.org/qfmn6j5ld/image.png[/img]

[b][size=100]The story is of a deaf-mute hitman and his partner who are based in Bangkok. He is friends with his partner's girlfriend who is a stripper at a local club. They go about their assassination...[/size][/b] 

[img]http://s14.postimage.org/468pzza4x/image.png[/img]

[img]http://s18.postimg.org/u5a280abt/image.jpg[/img]
 
http://www.imdb.com/title/tt0263101/

[b][size=100]Directors:
Oxide Pang Chun, Danny Pang
Writers:
Oxide Pang Chun, Danny Pang
Stars:
Pawalit Mongkolpisit, Premsinee Ratanasopha, Patharawarin Timkul[/size][/b] 

[img]http://s10.postimage.org/a8155dqyx/image.png[/img]

[img]http://s12.postimg.org/46lban7bh/image.jpg[/img]

[img]http://s12.postimg.org/47v942959/image.jpg[/img]

[img]http://s12.postimg.org/4ysknl0wd/image.jpg[/img]

[img]http://s12.postimg.org/uvm9074jx/image.jpg[/img]

[img]http://s14.postimage.org/6riw18owh/image.png[/img]


[b][size=100]Bangkok Dangerous (1999) DVDRip.x264.AC3 - FASTERWOLFBangkok Dangerous (1999) DVDRip.x264.AC3 - FASTERWOLF.mkv
Format : Matroska
Format version : Version 2
File size : 1,50 GiB
Duration : 1h 41mn
Overall bit rate : 2 113 Kbps
Writing application : HandBrake 0.9.8
Writing library : libmkv 0.6.5

Video
ID : 1
Format : AVC
Format/Info : Advanced Video Codec
Format profile : High@L3.0
Format settings, CABAC : ╬¥╬▒╬╣
Format settings, ReFrames : 4 frame
Codec ID : V_MPEG4/ISO/AVC
Duration : 1h 41mn
Bit rate : 1 660 Kbps
Width : 720 ╬╡╬╣╬║╬┐╬╜╬┐╧â╧ä╬┐╬╣╧ç╬╡╬»╬▒
Height : 384 ╬╡╬╣╬║╬┐╬╜╬┐╧â╧ä╬┐╬╣╧ç╬╡╬»╬▒
Display aspect ratio : 1,85:1
Frame rate : 25,000 fps
Color space : YUV
Chroma subsampling : 4:2:0
Bit depth : 8 bits
Scan type : ╬ú╧à╬╜╬╡╧ç╬«╧é ╧â╬¼╧ü╧ë╧â╬╖
Bits/(Pixel*Frame) : 0.240
Stream size : 1,15 GiB (77%)
Writing library : x264 core 120
Encoding settings : cabac=1 / ref=3 / deblock=1:0:0 / analyse=0x3:0x113 / me=hex / subme=7 / psy=1 / psy_rd=1.00:0.00 / mixed_ref=1 / me_range=16 / chroma_me=1 / trellis=2 / 8x8dct=1 / cqm=0 / deadzone=21,11 / fast_pskip=1 / chroma_qp_offset=-2 / threads=9 / sliced_threads=0 / nr=0 / decimate=0 / interlaced=0 / bluray_compat=0 / constrained_intra=0 / bframes=4 / b_pyramid=2 / b_adapt=2 / b_bias=0 / direct=1 / weightb=1 / open_gop=0 / weightp=1 / keyint=250 / keyint_min=25 / scenecut=40 / intra_refresh=0 / rc_lookahead=10 / rc=2pass / mbtree=1 / bitrate=1660 / ratetol=1.0 / qcomp=0.60 / qpmin=3 / qpmax=69 / qpstep=4 / cplxblur=20.0 / qblur=0.5 / ip_ratio=1.40 / aq=1:1.00
Language : English
Default : ╬¥╬▒╬╣
Forced : ╬î╧ç╬╣
colour_primaries : BT.601 NTSC
transfer_characteristics : BT.709
matrix_coefficients : BT.601

╬ë╧ç╬┐╧é
ID : 2
Format : AC-3
Format/Info : Audio Coding 3
Mode extension : CM (complete main)
Format settings, Endianness : Big
Codec ID : A_AC3
Duration : 1h 41mn
Bit rate : 448 Kbps
Channel(s) : 6 ╬║╬▒╬╜╬¼╬╗╬╣╬▒
Channel positions : Front: L C R, Side: L R, LFE
Sampling rate : 48,0 KHz
Bit depth : 16 bits
Stream size : 326 MiB (21%)
Language : Thai
Default : ╬¥╬▒╬╣
Forced : ╬î╧ç╬╣

╬£╬╡╬╜╬┐╧ì
00:00:00.000 : Chapter 1
00:05:18.000 : Chapter 2
00:13:05.000 : Chapter 3
00:18:01.480 : Chapter 4
00:29:06.400 : Chapter 5
00:31:32.000 : Chapter 6
00:35:37.000 : Chapter 7
00:45:11.000 : Chapter 8
00:55:07.000 : Chapter 9
00:58:23.800 : Chapter 10
01:05:04.400 : Chapter 11
01:07:39.000 : Chapter 12
01:12:59.400 : Chapter 13
01:17:16.000 : Chapter 14
01:25:44.480 : Chapter 15
01:39:02.000 : Chapter 16[/size][/b]

[color=green][b][size=100]Riper... FASTERWOLF

Source.........DVD[/size][/b][/color]

[color=red][b][size=100]Language: Thailand

English subtitles[/size][/b][/color]

[img]http://s16.postimage.org/7gouy5g3p/2012.jpg[/img]

[img]http://s7.postimg.org/z1vsxarm3/image.jpg[/img]